<mxfile host="app.diagrams.net" agent="Mozilla/5.0 (Macintosh; Intel Mac OS X 10_15_7) AppleWebKit/605.1.15 (KHTML, like Gecko) Version/16.6 Safari/605.1.15" version="24.8.6">
  <diagram id="IK03RhYoSm1twwCSZCft" name="datalogic">
    <mxGraphModel dx="233" dy="3057" grid="1" gridSize="10" guides="1" tooltips="1" connect="1" arrows="1" fold="1" page="1" pageScale="1" pageWidth="827" pageHeight="1169" math="0" shadow="0">
      <root>
        <mxCell id="0" />
        <mxCell id="1" parent="0" />
        <mxCell id="Mg-qTSmUdFS9DDmD3kpt-196" value="" style="group" parent="1" vertex="1" connectable="0">
          <mxGeometry x="3000" y="400" width="260" height="250" as="geometry" />
        </mxCell>
        <mxCell id="Mg-qTSmUdFS9DDmD3kpt-197" value="" style="rounded=0;whiteSpace=wrap;html=1;container=0;" parent="Mg-qTSmUdFS9DDmD3kpt-196" vertex="1">
          <mxGeometry width="260" height="250" as="geometry" />
        </mxCell>
        <mxCell id="Mg-qTSmUdFS9DDmD3kpt-198" value="TYPE" style="rounded=0;whiteSpace=wrap;html=1;container=0;" parent="Mg-qTSmUdFS9DDmD3kpt-196" vertex="1">
          <mxGeometry x="150" width="110" height="40" as="geometry" />
        </mxCell>
        <mxCell id="Mg-qTSmUdFS9DDmD3kpt-199" value="товар" style="rounded=0;whiteSpace=wrap;html=1;container=0;" parent="Mg-qTSmUdFS9DDmD3kpt-196" vertex="1">
          <mxGeometry width="110" height="40" as="geometry" />
        </mxCell>
        <mxCell id="Mg-qTSmUdFS9DDmD3kpt-200" value="NULL" style="rounded=0;whiteSpace=wrap;html=1;container=0;" parent="Mg-qTSmUdFS9DDmD3kpt-196" vertex="1">
          <mxGeometry x="110" width="40" height="40" as="geometry" />
        </mxCell>
        <mxCell id="Mg-qTSmUdFS9DDmD3kpt-201" value="INTEGER" style="rounded=0;whiteSpace=wrap;html=1;container=0;" parent="Mg-qTSmUdFS9DDmD3kpt-196" vertex="1">
          <mxGeometry x="150" y="40" width="110" height="40" as="geometry" />
        </mxCell>
        <mxCell id="Mg-qTSmUdFS9DDmD3kpt-202" value="id тоара" style="rounded=0;whiteSpace=wrap;html=1;fillColor=#d5e8d4;strokeColor=default;container=0;" parent="Mg-qTSmUdFS9DDmD3kpt-196" vertex="1">
          <mxGeometry y="40" width="110" height="40" as="geometry" />
        </mxCell>
        <mxCell id="Mg-qTSmUdFS9DDmD3kpt-203" value="" style="rounded=0;whiteSpace=wrap;html=1;fillColor=#f8cecc;strokeColor=#b85450;container=0;" parent="Mg-qTSmUdFS9DDmD3kpt-196" vertex="1">
          <mxGeometry x="110" y="40" width="40" height="40" as="geometry" />
        </mxCell>
        <mxCell id="Mg-qTSmUdFS9DDmD3kpt-204" value="INTEGER" style="rounded=0;whiteSpace=wrap;html=1;container=0;" parent="Mg-qTSmUdFS9DDmD3kpt-196" vertex="1">
          <mxGeometry x="150" y="80" width="110" height="40" as="geometry" />
        </mxCell>
        <mxCell id="Mg-qTSmUdFS9DDmD3kpt-205" value="цена" style="rounded=0;whiteSpace=wrap;html=1;container=0;" parent="Mg-qTSmUdFS9DDmD3kpt-196" vertex="1">
          <mxGeometry y="80" width="110" height="40" as="geometry" />
        </mxCell>
        <mxCell id="Mg-qTSmUdFS9DDmD3kpt-206" value="" style="rounded=0;whiteSpace=wrap;html=1;fillColor=#f8cecc;strokeColor=#b85450;container=0;" parent="Mg-qTSmUdFS9DDmD3kpt-196" vertex="1">
          <mxGeometry x="110" y="80" width="40" height="40" as="geometry" />
        </mxCell>
        <mxCell id="Mg-qTSmUdFS9DDmD3kpt-207" value="INTEGER" style="rounded=0;whiteSpace=wrap;html=1;container=0;" parent="Mg-qTSmUdFS9DDmD3kpt-196" vertex="1">
          <mxGeometry x="150" y="120" width="110" height="40" as="geometry" />
        </mxCell>
        <mxCell id="Mg-qTSmUdFS9DDmD3kpt-208" value="поставщик" style="rounded=0;whiteSpace=wrap;html=1;container=0;" parent="Mg-qTSmUdFS9DDmD3kpt-196" vertex="1">
          <mxGeometry y="120" width="110" height="40" as="geometry" />
        </mxCell>
        <mxCell id="Mg-qTSmUdFS9DDmD3kpt-209" value="" style="rounded=0;whiteSpace=wrap;html=1;fillColor=#d5e8d4;strokeColor=#82b366;container=0;" parent="Mg-qTSmUdFS9DDmD3kpt-196" vertex="1">
          <mxGeometry x="110" y="120" width="40" height="40" as="geometry" />
        </mxCell>
        <mxCell id="Mg-qTSmUdFS9DDmD3kpt-210" value="INTEGER" style="rounded=0;whiteSpace=wrap;html=1;container=0;" parent="Mg-qTSmUdFS9DDmD3kpt-196" vertex="1">
          <mxGeometry x="150" y="160" width="110" height="40" as="geometry" />
        </mxCell>
        <mxCell id="Mg-qTSmUdFS9DDmD3kpt-211" value="годен до" style="rounded=0;whiteSpace=wrap;html=1;container=0;" parent="Mg-qTSmUdFS9DDmD3kpt-196" vertex="1">
          <mxGeometry y="160" width="110" height="40" as="geometry" />
        </mxCell>
        <mxCell id="Mg-qTSmUdFS9DDmD3kpt-212" value="" style="rounded=0;whiteSpace=wrap;html=1;fillColor=#d5e8d4;strokeColor=#82b366;container=0;" parent="Mg-qTSmUdFS9DDmD3kpt-196" vertex="1">
          <mxGeometry x="110" y="160" width="40" height="40" as="geometry" />
        </mxCell>
        <mxCell id="Mg-qTSmUdFS9DDmD3kpt-213" value="INTEGER" style="rounded=0;whiteSpace=wrap;html=1;container=0;" parent="Mg-qTSmUdFS9DDmD3kpt-196" vertex="1">
          <mxGeometry x="150" y="200" width="110" height="40" as="geometry" />
        </mxCell>
        <mxCell id="Mg-qTSmUdFS9DDmD3kpt-214" value="категория товара" style="rounded=0;whiteSpace=wrap;html=1;container=0;fillColor=#fff2cc;strokeColor=default;" parent="Mg-qTSmUdFS9DDmD3kpt-196" vertex="1">
          <mxGeometry y="200" width="110" height="40" as="geometry" />
        </mxCell>
        <mxCell id="Mg-qTSmUdFS9DDmD3kpt-215" value="" style="rounded=0;whiteSpace=wrap;html=1;fillColor=#f8cecc;strokeColor=#b85450;container=0;" parent="Mg-qTSmUdFS9DDmD3kpt-196" vertex="1">
          <mxGeometry x="110" y="200" width="40" height="40" as="geometry" />
        </mxCell>
        <mxCell id="kz-lpx9P9c-T509X2Sdj-74" value="&lt;font style=&quot;font-size: 24px;&quot;&gt;s3&lt;/font&gt;" style="whiteSpace=wrap;html=1;aspect=fixed;" parent="1" vertex="1">
          <mxGeometry x="1690" y="-70" width="80" height="80" as="geometry" />
        </mxCell>
        <mxCell id="XcGxTRYXJ3ZfyFaMYZR7-38" value="" style="group" parent="1" vertex="1" connectable="0">
          <mxGeometry x="1600" y="-700" width="220" height="80" as="geometry" />
        </mxCell>
        <mxCell id="Mg-qTSmUdFS9DDmD3kpt-182" value="Первичный ключ" style="rounded=1;whiteSpace=wrap;html=1;fillColor=#d5e8d4;strokeColor=#82b366;" parent="XcGxTRYXJ3ZfyFaMYZR7-38" vertex="1">
          <mxGeometry width="160" height="40" as="geometry" />
        </mxCell>
        <mxCell id="Mg-qTSmUdFS9DDmD3kpt-183" style="edgeStyle=orthogonalEdgeStyle;shape=connector;rounded=1;orthogonalLoop=1;jettySize=auto;html=1;entryX=1;entryY=0.5;entryDx=0;entryDy=0;labelBackgroundColor=default;strokeColor=default;align=center;verticalAlign=middle;fontFamily=Helvetica;fontSize=11;fontColor=default;endArrow=classic;endFill=1;" parent="XcGxTRYXJ3ZfyFaMYZR7-38" source="Mg-qTSmUdFS9DDmD3kpt-184" target="Mg-qTSmUdFS9DDmD3kpt-182" edge="1">
          <mxGeometry relative="1" as="geometry">
            <Array as="points">
              <mxPoint x="220" y="60" />
              <mxPoint x="220" y="20" />
            </Array>
          </mxGeometry>
        </mxCell>
        <mxCell id="Mg-qTSmUdFS9DDmD3kpt-184" value="Вторичный ключ" style="rounded=1;whiteSpace=wrap;html=1;fillColor=#fff2cc;strokeColor=#d6b656;" parent="XcGxTRYXJ3ZfyFaMYZR7-38" vertex="1">
          <mxGeometry y="40" width="160" height="40" as="geometry" />
        </mxCell>
        <mxCell id="_W2fJyuQ3QIpKZY6sCjL-20" value="" style="group" parent="1" vertex="1" connectable="0">
          <mxGeometry x="1520" y="-421.93" width="260" height="220" as="geometry" />
        </mxCell>
        <mxCell id="_W2fJyuQ3QIpKZY6sCjL-4" value="" style="rounded=0;whiteSpace=wrap;html=1;container=0;" parent="_W2fJyuQ3QIpKZY6sCjL-20" vertex="1">
          <mxGeometry width="260" height="220" as="geometry" />
        </mxCell>
        <mxCell id="_W2fJyuQ3QIpKZY6sCjL-5" value="TYPE" style="rounded=0;whiteSpace=wrap;html=1;container=0;" parent="_W2fJyuQ3QIpKZY6sCjL-20" vertex="1">
          <mxGeometry x="150" width="110" height="40" as="geometry" />
        </mxCell>
        <mxCell id="_W2fJyuQ3QIpKZY6sCjL-6" value="tokens" style="rounded=0;whiteSpace=wrap;html=1;container=0;fillColor=#e1d5e7;strokeColor=#9673a6;" parent="_W2fJyuQ3QIpKZY6sCjL-20" vertex="1">
          <mxGeometry width="110" height="40" as="geometry" />
        </mxCell>
        <mxCell id="_W2fJyuQ3QIpKZY6sCjL-7" value="NULL" style="rounded=0;whiteSpace=wrap;html=1;container=0;" parent="_W2fJyuQ3QIpKZY6sCjL-20" vertex="1">
          <mxGeometry x="110" width="40" height="40" as="geometry" />
        </mxCell>
        <mxCell id="_W2fJyuQ3QIpKZY6sCjL-8" value="STRING" style="rounded=0;whiteSpace=wrap;html=1;container=0;" parent="_W2fJyuQ3QIpKZY6sCjL-20" vertex="1">
          <mxGeometry x="150" y="80" width="110" height="40" as="geometry" />
        </mxCell>
        <mxCell id="_W2fJyuQ3QIpKZY6sCjL-9" value="access_token" style="rounded=0;whiteSpace=wrap;html=1;container=0;" parent="_W2fJyuQ3QIpKZY6sCjL-20" vertex="1">
          <mxGeometry y="80" width="109" height="40" as="geometry" />
        </mxCell>
        <mxCell id="_W2fJyuQ3QIpKZY6sCjL-10" value="INTEGER" style="rounded=0;whiteSpace=wrap;html=1;container=0;" parent="_W2fJyuQ3QIpKZY6sCjL-20" vertex="1">
          <mxGeometry x="149" y="40" width="110" height="40" as="geometry" />
        </mxCell>
        <mxCell id="_W2fJyuQ3QIpKZY6sCjL-11" value="id пользователя" style="rounded=0;whiteSpace=wrap;html=1;container=0;fillColor=#fff2cc;strokeColor=default;" parent="_W2fJyuQ3QIpKZY6sCjL-20" vertex="1">
          <mxGeometry y="40" width="110" height="40" as="geometry" />
        </mxCell>
        <mxCell id="_W2fJyuQ3QIpKZY6sCjL-12" value="" style="rounded=0;whiteSpace=wrap;html=1;fillColor=#f8cecc;strokeColor=#b85450;container=0;" parent="_W2fJyuQ3QIpKZY6sCjL-20" vertex="1">
          <mxGeometry x="109" y="40" width="40" height="40" as="geometry" />
        </mxCell>
        <mxCell id="_W2fJyuQ3QIpKZY6sCjL-13" value="" style="rounded=0;whiteSpace=wrap;html=1;fillColor=#f8cecc;strokeColor=#b85450;container=0;" parent="_W2fJyuQ3QIpKZY6sCjL-20" vertex="1">
          <mxGeometry x="109" y="80" width="41" height="40" as="geometry" />
        </mxCell>
        <mxCell id="_W2fJyuQ3QIpKZY6sCjL-14" value="STRING" style="rounded=0;whiteSpace=wrap;html=1;container=0;" parent="_W2fJyuQ3QIpKZY6sCjL-20" vertex="1">
          <mxGeometry x="150" y="120" width="110" height="40" as="geometry" />
        </mxCell>
        <mxCell id="_W2fJyuQ3QIpKZY6sCjL-15" value="refresh_token" style="rounded=0;whiteSpace=wrap;html=1;container=0;" parent="_W2fJyuQ3QIpKZY6sCjL-20" vertex="1">
          <mxGeometry x="1" y="120" width="109" height="40" as="geometry" />
        </mxCell>
        <mxCell id="_W2fJyuQ3QIpKZY6sCjL-16" value="" style="rounded=0;whiteSpace=wrap;html=1;fillColor=#f8cecc;strokeColor=#b85450;container=0;" parent="_W2fJyuQ3QIpKZY6sCjL-20" vertex="1">
          <mxGeometry x="109" y="120" width="40" height="40" as="geometry" />
        </mxCell>
        <mxCell id="_W2fJyuQ3QIpKZY6sCjL-17" value="DATETIME" style="rounded=0;whiteSpace=wrap;html=1;container=0;" parent="_W2fJyuQ3QIpKZY6sCjL-20" vertex="1">
          <mxGeometry x="149.5" y="160" width="110" height="40" as="geometry" />
        </mxCell>
        <mxCell id="_W2fJyuQ3QIpKZY6sCjL-18" value="login_time" style="rounded=0;whiteSpace=wrap;html=1;container=0;" parent="_W2fJyuQ3QIpKZY6sCjL-20" vertex="1">
          <mxGeometry x="0.5" y="160" width="109" height="40" as="geometry" />
        </mxCell>
        <mxCell id="_W2fJyuQ3QIpKZY6sCjL-19" value="" style="rounded=0;whiteSpace=wrap;html=1;fillColor=#f8cecc;strokeColor=#b85450;container=0;" parent="_W2fJyuQ3QIpKZY6sCjL-20" vertex="1">
          <mxGeometry x="108.5" y="160" width="40" height="40" as="geometry" />
        </mxCell>
        <mxCell id="7xOUk3DTF3WUJqtrLa9k-38" value="" style="group" parent="1" vertex="1" connectable="0">
          <mxGeometry x="1890" y="-720" width="260" height="160" as="geometry" />
        </mxCell>
        <mxCell id="7xOUk3DTF3WUJqtrLa9k-5" value="" style="rounded=0;whiteSpace=wrap;html=1;container=0;" parent="7xOUk3DTF3WUJqtrLa9k-38" vertex="1">
          <mxGeometry width="260" height="160" as="geometry" />
        </mxCell>
        <mxCell id="7xOUk3DTF3WUJqtrLa9k-6" value="TYPE" style="rounded=0;whiteSpace=wrap;html=1;container=0;" parent="7xOUk3DTF3WUJqtrLa9k-38" vertex="1">
          <mxGeometry x="150" width="110" height="37.07317073170732" as="geometry" />
        </mxCell>
        <mxCell id="7xOUk3DTF3WUJqtrLa9k-7" value="общежитие" style="rounded=0;whiteSpace=wrap;html=1;fillColor=#e1d5e7;strokeColor=#9673a6;container=0;" parent="7xOUk3DTF3WUJqtrLa9k-38" vertex="1">
          <mxGeometry width="110" height="37.07317073170732" as="geometry" />
        </mxCell>
        <mxCell id="7xOUk3DTF3WUJqtrLa9k-8" value="NULL" style="rounded=0;whiteSpace=wrap;html=1;container=0;" parent="7xOUk3DTF3WUJqtrLa9k-38" vertex="1">
          <mxGeometry x="110" width="40" height="37.07317073170732" as="geometry" />
        </mxCell>
        <mxCell id="7xOUk3DTF3WUJqtrLa9k-9" value="INTEGER" style="rounded=0;whiteSpace=wrap;html=1;container=0;" parent="7xOUk3DTF3WUJqtrLa9k-38" vertex="1">
          <mxGeometry x="150" y="37.07317073170725" width="110" height="37.07317073170732" as="geometry" />
        </mxCell>
        <mxCell id="7xOUk3DTF3WUJqtrLa9k-10" value="id общежития" style="rounded=0;whiteSpace=wrap;html=1;fillColor=#d5e8d4;strokeColor=default;container=0;" parent="7xOUk3DTF3WUJqtrLa9k-38" vertex="1">
          <mxGeometry y="37.07317073170725" width="110" height="37.07317073170732" as="geometry" />
        </mxCell>
        <mxCell id="7xOUk3DTF3WUJqtrLa9k-11" value="ENUM" style="rounded=0;whiteSpace=wrap;html=1;container=0;" parent="7xOUk3DTF3WUJqtrLa9k-38" vertex="1">
          <mxGeometry x="150" y="74.14634146341461" width="110" height="37.07317073170732" as="geometry" />
        </mxCell>
        <mxCell id="7xOUk3DTF3WUJqtrLa9k-12" value="title" style="rounded=0;whiteSpace=wrap;html=1;container=0;" parent="7xOUk3DTF3WUJqtrLa9k-38" vertex="1">
          <mxGeometry y="74.14634146341461" width="110" height="38" as="geometry" />
        </mxCell>
        <mxCell id="7xOUk3DTF3WUJqtrLa9k-13" value="VARCHAR(255)" style="rounded=0;whiteSpace=wrap;html=1;container=0;" parent="7xOUk3DTF3WUJqtrLa9k-38" vertex="1">
          <mxGeometry x="150" y="111.21951219512198" width="110" height="37.07317073170732" as="geometry" />
        </mxCell>
        <mxCell id="7xOUk3DTF3WUJqtrLa9k-14" value="адрес" style="rounded=0;whiteSpace=wrap;html=1;container=0;" parent="7xOUk3DTF3WUJqtrLa9k-38" vertex="1">
          <mxGeometry y="111.21951219512198" width="110" height="37.07317073170732" as="geometry" />
        </mxCell>
        <mxCell id="7xOUk3DTF3WUJqtrLa9k-28" value="" style="rounded=0;whiteSpace=wrap;html=1;strokeColor=#b85450;fillColor=#f8cecc;container=0;" parent="7xOUk3DTF3WUJqtrLa9k-38" vertex="1">
          <mxGeometry x="110" y="37.07317073170725" width="40" height="37.07317073170732" as="geometry" />
        </mxCell>
        <mxCell id="7xOUk3DTF3WUJqtrLa9k-29" value="" style="rounded=0;whiteSpace=wrap;html=1;strokeColor=#b85450;fillColor=#f8cecc;container=0;" parent="7xOUk3DTF3WUJqtrLa9k-38" vertex="1">
          <mxGeometry x="110" y="74.14634146341461" width="40" height="37.07317073170732" as="geometry" />
        </mxCell>
        <mxCell id="7xOUk3DTF3WUJqtrLa9k-31" value="" style="rounded=0;whiteSpace=wrap;html=1;strokeColor=#82b366;fillColor=#d5e8d4;container=0;" parent="7xOUk3DTF3WUJqtrLa9k-38" vertex="1">
          <mxGeometry x="110" y="111.21951219512198" width="40" height="37.07317073170732" as="geometry" />
        </mxCell>
        <mxCell id="7xOUk3DTF3WUJqtrLa9k-73" value="" style="group" parent="1" vertex="1" connectable="0">
          <mxGeometry x="2230" y="-800" width="261" height="420" as="geometry" />
        </mxCell>
        <mxCell id="Mg-qTSmUdFS9DDmD3kpt-273" value="" style="rounded=0;whiteSpace=wrap;html=1;container=0;" parent="7xOUk3DTF3WUJqtrLa9k-73" vertex="1">
          <mxGeometry x="0.5" width="260" height="420" as="geometry" />
        </mxCell>
        <mxCell id="Mg-qTSmUdFS9DDmD3kpt-274" value="TYPE" style="rounded=0;whiteSpace=wrap;html=1;container=0;" parent="7xOUk3DTF3WUJqtrLa9k-73" vertex="1">
          <mxGeometry x="151" width="110" height="37.07317073170732" as="geometry" />
        </mxCell>
        <mxCell id="Mg-qTSmUdFS9DDmD3kpt-275" value="пользователь" style="rounded=0;whiteSpace=wrap;html=1;fillColor=#e1d5e7;strokeColor=#9673a6;container=0;" parent="7xOUk3DTF3WUJqtrLa9k-73" vertex="1">
          <mxGeometry x="1" width="110" height="37.07317073170732" as="geometry" />
        </mxCell>
        <mxCell id="Mg-qTSmUdFS9DDmD3kpt-276" value="NULL" style="rounded=0;whiteSpace=wrap;html=1;container=0;" parent="7xOUk3DTF3WUJqtrLa9k-73" vertex="1">
          <mxGeometry x="111" width="40" height="37.07317073170732" as="geometry" />
        </mxCell>
        <mxCell id="Mg-qTSmUdFS9DDmD3kpt-277" value="INTEGER" style="rounded=0;whiteSpace=wrap;html=1;container=0;" parent="7xOUk3DTF3WUJqtrLa9k-73" vertex="1">
          <mxGeometry x="151" y="37.07317073170725" width="110" height="37.07317073170732" as="geometry" />
        </mxCell>
        <mxCell id="Mg-qTSmUdFS9DDmD3kpt-278" value="id пользователя" style="rounded=0;whiteSpace=wrap;html=1;fillColor=#d5e8d4;strokeColor=default;container=0;" parent="7xOUk3DTF3WUJqtrLa9k-73" vertex="1">
          <mxGeometry x="1" y="37.07317073170725" width="110" height="37.07317073170732" as="geometry" />
        </mxCell>
        <mxCell id="Mg-qTSmUdFS9DDmD3kpt-283" value="VARCHAR(20)" style="rounded=0;whiteSpace=wrap;html=1;container=0;" parent="7xOUk3DTF3WUJqtrLa9k-73" vertex="1">
          <mxGeometry x="151" y="74.14634146341461" width="110" height="37.07317073170732" as="geometry" />
        </mxCell>
        <mxCell id="Mg-qTSmUdFS9DDmD3kpt-284" value="имя" style="rounded=0;whiteSpace=wrap;html=1;container=0;" parent="7xOUk3DTF3WUJqtrLa9k-73" vertex="1">
          <mxGeometry x="1" y="74.14634146341461" width="110" height="38" as="geometry" />
        </mxCell>
        <mxCell id="Mg-qTSmUdFS9DDmD3kpt-286" value="VARCHAR(35)" style="rounded=0;whiteSpace=wrap;html=1;container=0;" parent="7xOUk3DTF3WUJqtrLa9k-73" vertex="1">
          <mxGeometry x="151" y="111.21951219512198" width="110" height="37.07317073170732" as="geometry" />
        </mxCell>
        <mxCell id="Mg-qTSmUdFS9DDmD3kpt-287" value="фамилия" style="rounded=0;whiteSpace=wrap;html=1;container=0;" parent="7xOUk3DTF3WUJqtrLa9k-73" vertex="1">
          <mxGeometry x="1" y="111.21951219512198" width="110" height="37.07317073170732" as="geometry" />
        </mxCell>
        <mxCell id="Mg-qTSmUdFS9DDmD3kpt-288" value="" style="rounded=0;whiteSpace=wrap;html=1;container=0;" parent="7xOUk3DTF3WUJqtrLa9k-73" vertex="1">
          <mxGeometry x="111" y="148.2926829268293" width="40" height="37.07317073170732" as="geometry" />
        </mxCell>
        <mxCell id="Mg-qTSmUdFS9DDmD3kpt-289" value="VARCHAR(20)" style="rounded=0;whiteSpace=wrap;html=1;container=0;" parent="7xOUk3DTF3WUJqtrLa9k-73" vertex="1">
          <mxGeometry x="151" y="148.2926829268293" width="110" height="37.07317073170732" as="geometry" />
        </mxCell>
        <mxCell id="Mg-qTSmUdFS9DDmD3kpt-298" value="numb" style="rounded=0;whiteSpace=wrap;html=1;strokeColor=default;container=0;" parent="7xOUk3DTF3WUJqtrLa9k-73" vertex="1">
          <mxGeometry x="1" y="185.36" width="110" height="37.07" as="geometry" />
        </mxCell>
        <mxCell id="Mg-qTSmUdFS9DDmD3kpt-299" value="VARCHAR(25)" style="rounded=0;whiteSpace=wrap;html=1;container=0;" parent="7xOUk3DTF3WUJqtrLa9k-73" vertex="1">
          <mxGeometry x="150" y="185.36219512195123" width="110" height="37.07317073170732" as="geometry" />
        </mxCell>
        <mxCell id="Mg-qTSmUdFS9DDmD3kpt-304" value="отчество" style="rounded=0;whiteSpace=wrap;html=1;strokeColor=default;container=0;" parent="7xOUk3DTF3WUJqtrLa9k-73" vertex="1">
          <mxGeometry x="1" y="148.2926829268293" width="110" height="37.07317073170732" as="geometry" />
        </mxCell>
        <mxCell id="XcGxTRYXJ3ZfyFaMYZR7-34" value="role" style="rounded=0;whiteSpace=wrap;html=1;container=0;" parent="7xOUk3DTF3WUJqtrLa9k-73" vertex="1">
          <mxGeometry x="1" y="260.01" width="109" height="37.07" as="geometry" />
        </mxCell>
        <mxCell id="XcGxTRYXJ3ZfyFaMYZR7-35" value="CHAR(50)" style="rounded=0;whiteSpace=wrap;html=1;container=0;" parent="7xOUk3DTF3WUJqtrLa9k-73" vertex="1">
          <mxGeometry x="149.5" y="260.0053658536586" width="110" height="37.07317073170732" as="geometry" />
        </mxCell>
        <mxCell id="1lnWtZXPtRV0MWCXyM58-1" value="deleted_at" style="rounded=0;whiteSpace=wrap;html=1;container=0;" parent="7xOUk3DTF3WUJqtrLa9k-73" vertex="1">
          <mxGeometry y="374.15000000000003" width="110" height="37.07" as="geometry" />
        </mxCell>
        <mxCell id="1lnWtZXPtRV0MWCXyM58-2" value="DATETIME" style="rounded=0;whiteSpace=wrap;html=1;container=0;" parent="7xOUk3DTF3WUJqtrLa9k-73" vertex="1">
          <mxGeometry x="140" y="374.15" width="120" height="37.07" as="geometry" />
        </mxCell>
        <mxCell id="XcGxTRYXJ3ZfyFaMYZR7-51" value="varchar(35)" style="rounded=0;whiteSpace=wrap;html=1;container=0;" parent="7xOUk3DTF3WUJqtrLa9k-73" vertex="1">
          <mxGeometry x="140" y="334.15" width="119.5" height="40" as="geometry" />
        </mxCell>
        <mxCell id="7xOUk3DTF3WUJqtrLa9k-3" value="VARCHAR(50)" style="rounded=0;whiteSpace=wrap;html=1;container=0;" parent="7xOUk3DTF3WUJqtrLa9k-73" vertex="1">
          <mxGeometry x="150" y="297.08" width="110" height="37.07" as="geometry" />
        </mxCell>
        <mxCell id="XcGxTRYXJ3ZfyFaMYZR7-52" value="hash_passwd" style="rounded=0;whiteSpace=wrap;html=1;container=0;" parent="7xOUk3DTF3WUJqtrLa9k-73" vertex="1">
          <mxGeometry x="0.5" y="334.15000000000003" width="110" height="40" as="geometry" />
        </mxCell>
        <mxCell id="7xOUk3DTF3WUJqtrLa9k-2" value="tg" style="rounded=0;whiteSpace=wrap;html=1;container=0;" parent="7xOUk3DTF3WUJqtrLa9k-73" vertex="1">
          <mxGeometry y="297.08" width="110" height="37.07" as="geometry" />
        </mxCell>
        <mxCell id="Mg-qTSmUdFS9DDmD3kpt-279" value="" style="rounded=0;whiteSpace=wrap;html=1;strokeColor=#b85450;fillColor=#f8cecc;container=0;" parent="7xOUk3DTF3WUJqtrLa9k-73" vertex="1">
          <mxGeometry x="111" y="37.07317073170725" width="40" height="37.07317073170732" as="geometry" />
        </mxCell>
        <mxCell id="Mg-qTSmUdFS9DDmD3kpt-285" value="" style="rounded=0;whiteSpace=wrap;html=1;strokeColor=#b85450;fillColor=#f8cecc;container=0;" parent="7xOUk3DTF3WUJqtrLa9k-73" vertex="1">
          <mxGeometry x="111" y="74.14634146341461" width="40" height="37.07317073170732" as="geometry" />
        </mxCell>
        <mxCell id="Mg-qTSmUdFS9DDmD3kpt-291" value="" style="rounded=0;whiteSpace=wrap;html=1;strokeColor=#82b366;fillColor=#d5e8d4;container=0;" parent="7xOUk3DTF3WUJqtrLa9k-73" vertex="1">
          <mxGeometry x="111" y="148.2926829268293" width="40" height="37.07317073170732" as="geometry" />
        </mxCell>
        <mxCell id="Mg-qTSmUdFS9DDmD3kpt-297" value="" style="rounded=0;whiteSpace=wrap;html=1;strokeColor=#b85450;fillColor=#f8cecc;container=0;" parent="7xOUk3DTF3WUJqtrLa9k-73" vertex="1">
          <mxGeometry x="111" y="111.21951219512198" width="40" height="37.07317073170732" as="geometry" />
        </mxCell>
        <mxCell id="Mg-qTSmUdFS9DDmD3kpt-300" value="" style="rounded=0;whiteSpace=wrap;html=1;strokeColor=#b85450;fillColor=#f8cecc;container=0;" parent="7xOUk3DTF3WUJqtrLa9k-73" vertex="1">
          <mxGeometry x="111" y="185.36" width="40" height="37.07" as="geometry" />
        </mxCell>
        <mxCell id="XcGxTRYXJ3ZfyFaMYZR7-36" value="" style="rounded=0;whiteSpace=wrap;html=1;strokeColor=#b85450;fillColor=#f8cecc;container=0;" parent="7xOUk3DTF3WUJqtrLa9k-73" vertex="1">
          <mxGeometry x="110" y="260.01" width="40" height="37.07" as="geometry" />
        </mxCell>
        <mxCell id="1lnWtZXPtRV0MWCXyM58-3" value="" style="rounded=0;whiteSpace=wrap;html=1;strokeColor=#82b366;fillColor=#d5e8d4;container=0;" parent="7xOUk3DTF3WUJqtrLa9k-73" vertex="1">
          <mxGeometry x="108.5" y="374.1453658536586" width="40" height="37.07317073170732" as="geometry" />
        </mxCell>
        <mxCell id="XcGxTRYXJ3ZfyFaMYZR7-53" value="" style="rounded=0;whiteSpace=wrap;html=1;fillColor=#f8cecc;strokeColor=#b85450;container=0;" parent="7xOUk3DTF3WUJqtrLa9k-73" vertex="1">
          <mxGeometry x="108.5" y="334.15000000000003" width="40" height="40" as="geometry" />
        </mxCell>
        <mxCell id="7xOUk3DTF3WUJqtrLa9k-4" value="" style="rounded=0;whiteSpace=wrap;html=1;strokeColor=#b85450;fillColor=#f8cecc;container=0;" parent="7xOUk3DTF3WUJqtrLa9k-73" vertex="1">
          <mxGeometry x="109" y="297.08" width="40" height="37.07" as="geometry" />
        </mxCell>
        <mxCell id="7xOUk3DTF3WUJqtrLa9k-68" value="dorm_id" style="rounded=0;whiteSpace=wrap;html=1;container=0;fillColor=#fff2cc;strokeColor=#d6b656;" parent="7xOUk3DTF3WUJqtrLa9k-73" vertex="1">
          <mxGeometry x="0.5" y="222.44" width="110" height="37.07" as="geometry" />
        </mxCell>
        <mxCell id="7xOUk3DTF3WUJqtrLa9k-69" value="INTEGER" style="rounded=0;whiteSpace=wrap;html=1;container=0;" parent="7xOUk3DTF3WUJqtrLa9k-73" vertex="1">
          <mxGeometry x="150" y="222.4353658536586" width="110" height="37.07317073170732" as="geometry" />
        </mxCell>
        <mxCell id="7xOUk3DTF3WUJqtrLa9k-70" value="" style="rounded=0;whiteSpace=wrap;html=1;strokeColor=#b85450;fillColor=#f8cecc;container=0;" parent="7xOUk3DTF3WUJqtrLa9k-73" vertex="1">
          <mxGeometry x="110.5" y="222.44" width="40" height="37.07" as="geometry" />
        </mxCell>
        <mxCell id="7xOUk3DTF3WUJqtrLa9k-128" style="edgeStyle=orthogonalEdgeStyle;rounded=1;orthogonalLoop=1;jettySize=auto;html=1;entryX=1;entryY=0.5;entryDx=0;entryDy=0;curved=0;" parent="1" source="7xOUk3DTF3WUJqtrLa9k-68" target="7xOUk3DTF3WUJqtrLa9k-9" edge="1">
          <mxGeometry relative="1" as="geometry" />
        </mxCell>
        <mxCell id="7xOUk3DTF3WUJqtrLa9k-130" style="edgeStyle=orthogonalEdgeStyle;rounded=1;orthogonalLoop=1;jettySize=auto;html=1;entryX=1;entryY=0.5;entryDx=0;entryDy=0;curved=0;" parent="1" source="7xOUk3DTF3WUJqtrLa9k-113" target="7xOUk3DTF3WUJqtrLa9k-44" edge="1">
          <mxGeometry relative="1" as="geometry">
            <Array as="points">
              <mxPoint x="2530" y="-522" />
              <mxPoint x="2530" y="-274" />
            </Array>
          </mxGeometry>
        </mxCell>
        <mxCell id="7xOUk3DTF3WUJqtrLa9k-131" style="edgeStyle=orthogonalEdgeStyle;rounded=1;orthogonalLoop=1;jettySize=auto;html=1;entryX=1;entryY=0.5;entryDx=0;entryDy=0;curved=0;" parent="1" source="7xOUk3DTF3WUJqtrLa9k-80" target="7xOUk3DTF3WUJqtrLa9k-9" edge="1">
          <mxGeometry relative="1" as="geometry" />
        </mxCell>
        <mxCell id="7xOUk3DTF3WUJqtrLa9k-132" value="" style="group" parent="1" vertex="1" connectable="0">
          <mxGeometry x="2230" y="-330" width="260" height="200" as="geometry" />
        </mxCell>
        <mxCell id="7xOUk3DTF3WUJqtrLa9k-40" value="" style="rounded=0;whiteSpace=wrap;html=1;container=0;" parent="7xOUk3DTF3WUJqtrLa9k-132" vertex="1">
          <mxGeometry width="260" height="200" as="geometry" />
        </mxCell>
        <mxCell id="7xOUk3DTF3WUJqtrLa9k-41" value="TYPE" style="rounded=0;whiteSpace=wrap;html=1;container=0;" parent="7xOUk3DTF3WUJqtrLa9k-132" vertex="1">
          <mxGeometry x="150" width="110" height="37.07317073170732" as="geometry" />
        </mxCell>
        <mxCell id="7xOUk3DTF3WUJqtrLa9k-42" value="комната" style="rounded=0;whiteSpace=wrap;html=1;fillColor=#e1d5e7;strokeColor=#9673a6;container=0;" parent="7xOUk3DTF3WUJqtrLa9k-132" vertex="1">
          <mxGeometry width="110" height="37.07317073170732" as="geometry" />
        </mxCell>
        <mxCell id="7xOUk3DTF3WUJqtrLa9k-43" value="NULL" style="rounded=0;whiteSpace=wrap;html=1;container=0;" parent="7xOUk3DTF3WUJqtrLa9k-132" vertex="1">
          <mxGeometry x="110" width="40" height="37.07317073170732" as="geometry" />
        </mxCell>
        <mxCell id="7xOUk3DTF3WUJqtrLa9k-44" value="INTEGER" style="rounded=0;whiteSpace=wrap;html=1;container=0;" parent="7xOUk3DTF3WUJqtrLa9k-132" vertex="1">
          <mxGeometry x="150" y="37.07317073170725" width="110" height="37.07317073170732" as="geometry" />
        </mxCell>
        <mxCell id="7xOUk3DTF3WUJqtrLa9k-45" value="id комнаты" style="rounded=0;whiteSpace=wrap;html=1;fillColor=#d5e8d4;strokeColor=default;container=0;" parent="7xOUk3DTF3WUJqtrLa9k-132" vertex="1">
          <mxGeometry y="37.07317073170725" width="110" height="37.07317073170732" as="geometry" />
        </mxCell>
        <mxCell id="7xOUk3DTF3WUJqtrLa9k-46" value="INTEGER" style="rounded=0;whiteSpace=wrap;html=1;container=0;" parent="7xOUk3DTF3WUJqtrLa9k-132" vertex="1">
          <mxGeometry x="150" y="111.21634146341461" width="110" height="37.07317073170732" as="geometry" />
        </mxCell>
        <mxCell id="7xOUk3DTF3WUJqtrLa9k-47" value="номер блока" style="rounded=0;whiteSpace=wrap;html=1;container=0;" parent="7xOUk3DTF3WUJqtrLa9k-132" vertex="1">
          <mxGeometry y="111.21634146341461" width="110" height="38" as="geometry" />
        </mxCell>
        <mxCell id="7xOUk3DTF3WUJqtrLa9k-48" value="INTEGER" style="rounded=0;whiteSpace=wrap;html=1;container=0;" parent="7xOUk3DTF3WUJqtrLa9k-132" vertex="1">
          <mxGeometry x="150" y="148.28951219512197" width="110" height="37.07317073170732" as="geometry" />
        </mxCell>
        <mxCell id="7xOUk3DTF3WUJqtrLa9k-49" value="номер комнаты" style="rounded=0;whiteSpace=wrap;html=1;container=0;" parent="7xOUk3DTF3WUJqtrLa9k-132" vertex="1">
          <mxGeometry y="148.28951219512197" width="110" height="37.07317073170732" as="geometry" />
        </mxCell>
        <mxCell id="7xOUk3DTF3WUJqtrLa9k-50" value="" style="rounded=0;whiteSpace=wrap;html=1;strokeColor=#b85450;fillColor=#f8cecc;container=0;" parent="7xOUk3DTF3WUJqtrLa9k-132" vertex="1">
          <mxGeometry x="110" y="37.07317073170725" width="40" height="37.07317073170732" as="geometry" />
        </mxCell>
        <mxCell id="7xOUk3DTF3WUJqtrLa9k-51" value="" style="rounded=0;whiteSpace=wrap;html=1;strokeColor=#b85450;fillColor=#f8cecc;container=0;" parent="7xOUk3DTF3WUJqtrLa9k-132" vertex="1">
          <mxGeometry x="110" y="111.21634146341461" width="40" height="37.07317073170732" as="geometry" />
        </mxCell>
        <mxCell id="7xOUk3DTF3WUJqtrLa9k-52" value="" style="rounded=0;whiteSpace=wrap;html=1;strokeColor=#82b366;fillColor=#d5e8d4;container=0;" parent="7xOUk3DTF3WUJqtrLa9k-132" vertex="1">
          <mxGeometry x="110" y="148.28951219512197" width="40" height="37.07317073170732" as="geometry" />
        </mxCell>
        <mxCell id="7xOUk3DTF3WUJqtrLa9k-79" value="INTEGER" style="rounded=0;whiteSpace=wrap;html=1;container=0;" parent="7xOUk3DTF3WUJqtrLa9k-132" vertex="1">
          <mxGeometry x="150" y="74.14634146341461" width="110" height="37.07317073170732" as="geometry" />
        </mxCell>
        <mxCell id="7xOUk3DTF3WUJqtrLa9k-80" value="dorm_id" style="rounded=0;whiteSpace=wrap;html=1;container=0;fillColor=#fff2cc;strokeColor=#d6b656;" parent="7xOUk3DTF3WUJqtrLa9k-132" vertex="1">
          <mxGeometry y="74.14634146341461" width="110" height="38" as="geometry" />
        </mxCell>
        <mxCell id="7xOUk3DTF3WUJqtrLa9k-81" value="" style="rounded=0;whiteSpace=wrap;html=1;strokeColor=#b85450;fillColor=#f8cecc;container=0;" parent="7xOUk3DTF3WUJqtrLa9k-132" vertex="1">
          <mxGeometry x="110" y="74.14634146341461" width="40" height="37.07317073170732" as="geometry" />
        </mxCell>
        <mxCell id="7xOUk3DTF3WUJqtrLa9k-157" value="" style="group" parent="1" vertex="1" connectable="0">
          <mxGeometry x="2570" y="-800.0000000000001" width="260" height="420" as="geometry" />
        </mxCell>
        <mxCell id="7xOUk3DTF3WUJqtrLa9k-88" value="" style="rounded=0;whiteSpace=wrap;html=1;container=0;" parent="7xOUk3DTF3WUJqtrLa9k-157" vertex="1">
          <mxGeometry width="260" height="420" as="geometry" />
        </mxCell>
        <mxCell id="7xOUk3DTF3WUJqtrLa9k-89" value="TYPE" style="rounded=0;whiteSpace=wrap;html=1;container=0;" parent="7xOUk3DTF3WUJqtrLa9k-157" vertex="1">
          <mxGeometry x="150" width="110" height="37.07317073170732" as="geometry" />
        </mxCell>
        <mxCell id="7xOUk3DTF3WUJqtrLa9k-90" value="violation" style="rounded=0;whiteSpace=wrap;html=1;fillColor=#e1d5e7;strokeColor=#9673a6;container=0;" parent="7xOUk3DTF3WUJqtrLa9k-157" vertex="1">
          <mxGeometry width="110" height="37.07317073170732" as="geometry" />
        </mxCell>
        <mxCell id="7xOUk3DTF3WUJqtrLa9k-91" value="NULL" style="rounded=0;whiteSpace=wrap;html=1;container=0;" parent="7xOUk3DTF3WUJqtrLa9k-157" vertex="1">
          <mxGeometry x="110" width="40" height="37.07317073170732" as="geometry" />
        </mxCell>
        <mxCell id="7xOUk3DTF3WUJqtrLa9k-92" value="INTEGER" style="rounded=0;whiteSpace=wrap;html=1;container=0;" parent="7xOUk3DTF3WUJqtrLa9k-157" vertex="1">
          <mxGeometry x="150" y="37.07317073170725" width="110" height="37.07317073170732" as="geometry" />
        </mxCell>
        <mxCell id="7xOUk3DTF3WUJqtrLa9k-93" value="id нарушения" style="rounded=0;whiteSpace=wrap;html=1;fillColor=#d5e8d4;strokeColor=default;container=0;" parent="7xOUk3DTF3WUJqtrLa9k-157" vertex="1">
          <mxGeometry y="37.07317073170725" width="110" height="37.07317073170732" as="geometry" />
        </mxCell>
        <mxCell id="7xOUk3DTF3WUJqtrLa9k-94" value="CHAR(50)" style="rounded=0;whiteSpace=wrap;html=1;container=0;" parent="7xOUk3DTF3WUJqtrLa9k-157" vertex="1">
          <mxGeometry x="150" y="111.21634146341461" width="110" height="37.07317073170732" as="geometry" />
        </mxCell>
        <mxCell id="7xOUk3DTF3WUJqtrLa9k-95" value="document type" style="rounded=0;whiteSpace=wrap;html=1;container=0;" parent="7xOUk3DTF3WUJqtrLa9k-157" vertex="1">
          <mxGeometry y="111.21634146341461" width="110" height="38" as="geometry" />
        </mxCell>
        <mxCell id="7xOUk3DTF3WUJqtrLa9k-96" value="CHAR(50)" style="rounded=0;whiteSpace=wrap;html=1;container=0;" parent="7xOUk3DTF3WUJqtrLa9k-157" vertex="1">
          <mxGeometry x="150" y="148.28951219512197" width="110" height="37.07317073170732" as="geometry" />
        </mxCell>
        <mxCell id="7xOUk3DTF3WUJqtrLa9k-97" value="violators name" style="rounded=0;whiteSpace=wrap;html=1;container=0;" parent="7xOUk3DTF3WUJqtrLa9k-157" vertex="1">
          <mxGeometry y="148.28951219512197" width="110" height="37.07317073170732" as="geometry" />
        </mxCell>
        <mxCell id="7xOUk3DTF3WUJqtrLa9k-98" value="" style="rounded=0;whiteSpace=wrap;html=1;strokeColor=#b85450;fillColor=#f8cecc;container=0;" parent="7xOUk3DTF3WUJqtrLa9k-157" vertex="1">
          <mxGeometry x="110" y="37.07317073170725" width="40" height="37.07317073170732" as="geometry" />
        </mxCell>
        <mxCell id="7xOUk3DTF3WUJqtrLa9k-99" value="" style="rounded=0;whiteSpace=wrap;html=1;strokeColor=#b85450;fillColor=#f8cecc;container=0;" parent="7xOUk3DTF3WUJqtrLa9k-157" vertex="1">
          <mxGeometry x="110" y="111.21634146341461" width="40" height="37.07317073170732" as="geometry" />
        </mxCell>
        <mxCell id="7xOUk3DTF3WUJqtrLa9k-100" value="" style="rounded=0;whiteSpace=wrap;html=1;strokeColor=#b85450;fillColor=#f8cecc;container=0;" parent="7xOUk3DTF3WUJqtrLa9k-157" vertex="1">
          <mxGeometry x="110" y="148.28951219512197" width="40" height="37.07317073170732" as="geometry" />
        </mxCell>
        <mxCell id="7xOUk3DTF3WUJqtrLa9k-101" value="INTEGER" style="rounded=0;whiteSpace=wrap;html=1;container=0;" parent="7xOUk3DTF3WUJqtrLa9k-157" vertex="1">
          <mxGeometry x="150" y="70" width="110" height="41.22" as="geometry" />
        </mxCell>
        <mxCell id="7xOUk3DTF3WUJqtrLa9k-102" value="user_id" style="rounded=0;whiteSpace=wrap;html=1;container=0;fillColor=#fff2cc;strokeColor=#d6b656;" parent="7xOUk3DTF3WUJqtrLa9k-157" vertex="1">
          <mxGeometry y="74.14634146341461" width="110" height="38" as="geometry" />
        </mxCell>
        <mxCell id="7xOUk3DTF3WUJqtrLa9k-103" value="" style="rounded=0;whiteSpace=wrap;html=1;strokeColor=#b85450;fillColor=#f8cecc;container=0;" parent="7xOUk3DTF3WUJqtrLa9k-157" vertex="1">
          <mxGeometry x="110" y="74.14634146341461" width="40" height="37.07317073170732" as="geometry" />
        </mxCell>
        <mxCell id="7xOUk3DTF3WUJqtrLa9k-104" value="CHAR(50)" style="rounded=0;whiteSpace=wrap;html=1;container=0;" parent="7xOUk3DTF3WUJqtrLa9k-157" vertex="1">
          <mxGeometry x="150" y="185.35951219512197" width="110" height="37.07317073170732" as="geometry" />
        </mxCell>
        <mxCell id="7xOUk3DTF3WUJqtrLa9k-105" value="violations type" style="rounded=0;whiteSpace=wrap;html=1;container=0;" parent="7xOUk3DTF3WUJqtrLa9k-157" vertex="1">
          <mxGeometry y="185.35951219512197" width="110" height="37.07317073170732" as="geometry" />
        </mxCell>
        <mxCell id="7xOUk3DTF3WUJqtrLa9k-106" value="" style="rounded=0;whiteSpace=wrap;html=1;strokeColor=#b85450;fillColor=#f8cecc;container=0;" parent="7xOUk3DTF3WUJqtrLa9k-157" vertex="1">
          <mxGeometry x="110" y="185.35951219512197" width="40" height="37.07317073170732" as="geometry" />
        </mxCell>
        <mxCell id="7xOUk3DTF3WUJqtrLa9k-109" value="CHAR(255)" style="rounded=0;whiteSpace=wrap;html=1;container=0;" parent="7xOUk3DTF3WUJqtrLa9k-157" vertex="1">
          <mxGeometry x="150" y="222.42951219512196" width="110" height="37.07317073170732" as="geometry" />
        </mxCell>
        <mxCell id="7xOUk3DTF3WUJqtrLa9k-110" value="description" style="rounded=0;whiteSpace=wrap;html=1;container=0;" parent="7xOUk3DTF3WUJqtrLa9k-157" vertex="1">
          <mxGeometry y="222.42951219512196" width="110" height="37.07317073170732" as="geometry" />
        </mxCell>
        <mxCell id="7xOUk3DTF3WUJqtrLa9k-111" value="" style="rounded=0;whiteSpace=wrap;html=1;strokeColor=#b85450;fillColor=#f8cecc;container=0;" parent="7xOUk3DTF3WUJqtrLa9k-157" vertex="1">
          <mxGeometry x="110" y="222.42951219512196" width="40" height="37.07317073170732" as="geometry" />
        </mxCell>
        <mxCell id="7xOUk3DTF3WUJqtrLa9k-112" value="INTEGER" style="rounded=0;whiteSpace=wrap;html=1;container=0;" parent="7xOUk3DTF3WUJqtrLa9k-157" vertex="1">
          <mxGeometry x="150" y="259.49951219512195" width="110" height="37.07317073170732" as="geometry" />
        </mxCell>
        <mxCell id="7xOUk3DTF3WUJqtrLa9k-113" value="room_id" style="rounded=0;whiteSpace=wrap;html=1;container=0;fillColor=#fff2cc;strokeColor=#d6b656;" parent="7xOUk3DTF3WUJqtrLa9k-157" vertex="1">
          <mxGeometry y="259.49951219512195" width="110" height="37.07317073170732" as="geometry" />
        </mxCell>
        <mxCell id="7xOUk3DTF3WUJqtrLa9k-114" value="" style="rounded=0;whiteSpace=wrap;html=1;strokeColor=#b85450;fillColor=#f8cecc;container=0;" parent="7xOUk3DTF3WUJqtrLa9k-157" vertex="1">
          <mxGeometry x="110" y="259.49951219512195" width="40" height="37.07317073170732" as="geometry" />
        </mxCell>
        <mxCell id="7xOUk3DTF3WUJqtrLa9k-115" value="CHAR(50)" style="rounded=0;whiteSpace=wrap;html=1;container=0;" parent="7xOUk3DTF3WUJqtrLa9k-157" vertex="1">
          <mxGeometry x="150" y="296.569512195122" width="110" height="37.07317073170732" as="geometry" />
        </mxCell>
        <mxCell id="7xOUk3DTF3WUJqtrLa9k-116" value="witness" style="rounded=0;whiteSpace=wrap;html=1;container=0;" parent="7xOUk3DTF3WUJqtrLa9k-157" vertex="1">
          <mxGeometry y="296.569512195122" width="110" height="37.07317073170732" as="geometry" />
        </mxCell>
        <mxCell id="7xOUk3DTF3WUJqtrLa9k-117" value="" style="rounded=0;whiteSpace=wrap;html=1;strokeColor=#b85450;fillColor=#f8cecc;container=0;" parent="7xOUk3DTF3WUJqtrLa9k-157" vertex="1">
          <mxGeometry x="110" y="296.569512195122" width="40" height="37.07317073170732" as="geometry" />
        </mxCell>
        <mxCell id="7xOUk3DTF3WUJqtrLa9k-118" value="DATETIME" style="rounded=0;whiteSpace=wrap;html=1;container=0;" parent="7xOUk3DTF3WUJqtrLa9k-157" vertex="1">
          <mxGeometry x="150" y="333.63951219512194" width="110" height="37.07317073170732" as="geometry" />
        </mxCell>
        <mxCell id="7xOUk3DTF3WUJqtrLa9k-119" value="created at" style="rounded=0;whiteSpace=wrap;html=1;container=0;" parent="7xOUk3DTF3WUJqtrLa9k-157" vertex="1">
          <mxGeometry y="333.63951219512194" width="110" height="37.07317073170732" as="geometry" />
        </mxCell>
        <mxCell id="7xOUk3DTF3WUJqtrLa9k-120" value="" style="rounded=0;whiteSpace=wrap;html=1;strokeColor=#b85450;fillColor=#f8cecc;container=0;" parent="7xOUk3DTF3WUJqtrLa9k-157" vertex="1">
          <mxGeometry x="110" y="333.63951219512194" width="40" height="37.07317073170732" as="geometry" />
        </mxCell>
        <mxCell id="7xOUk3DTF3WUJqtrLa9k-121" value="DATETIME" style="rounded=0;whiteSpace=wrap;html=1;container=0;" parent="7xOUk3DTF3WUJqtrLa9k-157" vertex="1">
          <mxGeometry x="150" y="370.709512195122" width="110" height="37.07317073170732" as="geometry" />
        </mxCell>
        <mxCell id="7xOUk3DTF3WUJqtrLa9k-122" value="deleted at" style="rounded=0;whiteSpace=wrap;html=1;container=0;" parent="7xOUk3DTF3WUJqtrLa9k-157" vertex="1">
          <mxGeometry y="370.709512195122" width="110" height="37.07317073170732" as="geometry" />
        </mxCell>
        <mxCell id="7xOUk3DTF3WUJqtrLa9k-123" value="" style="rounded=0;whiteSpace=wrap;html=1;strokeColor=#b85450;fillColor=#f8cecc;container=0;" parent="7xOUk3DTF3WUJqtrLa9k-157" vertex="1">
          <mxGeometry x="110" y="370.709512195122" width="40" height="37.07317073170732" as="geometry" />
        </mxCell>
        <mxCell id="7xOUk3DTF3WUJqtrLa9k-159" style="edgeStyle=orthogonalEdgeStyle;rounded=1;orthogonalLoop=1;jettySize=auto;html=1;entryX=1;entryY=0.5;entryDx=0;entryDy=0;curved=0;" parent="1" source="7xOUk3DTF3WUJqtrLa9k-147" target="7xOUk3DTF3WUJqtrLa9k-9" edge="1">
          <mxGeometry relative="1" as="geometry" />
        </mxCell>
        <mxCell id="7xOUk3DTF3WUJqtrLa9k-161" style="edgeStyle=orthogonalEdgeStyle;rounded=1;orthogonalLoop=1;jettySize=auto;html=1;exitX=1;exitY=0.5;exitDx=0;exitDy=0;entryX=1;entryY=0.5;entryDx=0;entryDy=0;curved=0;" parent="1" source="7xOUk3DTF3WUJqtrLa9k-139" target="7xOUk3DTF3WUJqtrLa9k-44" edge="1">
          <mxGeometry relative="1" as="geometry">
            <Array as="points">
              <mxPoint x="2530" y="-1070" />
              <mxPoint x="2530" y="-274" />
            </Array>
          </mxGeometry>
        </mxCell>
        <mxCell id="_xIxu37W2f5-DL7v4vmT-4" style="edgeStyle=orthogonalEdgeStyle;rounded=1;orthogonalLoop=1;jettySize=auto;html=1;entryX=0;entryY=0.5;entryDx=0;entryDy=0;curved=0;" edge="1" parent="1" source="_xIxu37W2f5-DL7v4vmT-2" target="Mg-qTSmUdFS9DDmD3kpt-278">
          <mxGeometry relative="1" as="geometry">
            <Array as="points">
              <mxPoint x="2211" y="-921" />
              <mxPoint x="2211" y="-744" />
            </Array>
          </mxGeometry>
        </mxCell>
        <mxCell id="7xOUk3DTF3WUJqtrLa9k-149" value="" style="rounded=0;whiteSpace=wrap;html=1;container=0;" parent="1" vertex="1">
          <mxGeometry x="2231" y="-1200" width="260" height="310" as="geometry" />
        </mxCell>
        <mxCell id="7xOUk3DTF3WUJqtrLa9k-134" value="TYPE" style="rounded=0;whiteSpace=wrap;html=1;container=0;" parent="1" vertex="1">
          <mxGeometry x="2381" y="-1200" width="110" height="37.07317073170732" as="geometry" />
        </mxCell>
        <mxCell id="7xOUk3DTF3WUJqtrLa9k-135" value="note" style="rounded=0;whiteSpace=wrap;html=1;fillColor=#e1d5e7;strokeColor=#9673a6;container=0;" parent="1" vertex="1">
          <mxGeometry x="2231" y="-1200" width="110" height="37.07317073170732" as="geometry" />
        </mxCell>
        <mxCell id="7xOUk3DTF3WUJqtrLa9k-136" value="NULL" style="rounded=0;whiteSpace=wrap;html=1;container=0;" parent="1" vertex="1">
          <mxGeometry x="2341" y="-1200" width="40" height="37.07317073170732" as="geometry" />
        </mxCell>
        <mxCell id="7xOUk3DTF3WUJqtrLa9k-137" value="INTEGER" style="rounded=0;whiteSpace=wrap;html=1;container=0;" parent="1" vertex="1">
          <mxGeometry x="2381" y="-1162.9268292682927" width="110" height="37.07317073170732" as="geometry" />
        </mxCell>
        <mxCell id="7xOUk3DTF3WUJqtrLa9k-138" value="note_id" style="rounded=0;whiteSpace=wrap;html=1;fillColor=#d5e8d4;strokeColor=default;container=0;" parent="1" vertex="1">
          <mxGeometry x="2231" y="-1162.9268292682927" width="110" height="37.07317073170732" as="geometry" />
        </mxCell>
        <mxCell id="7xOUk3DTF3WUJqtrLa9k-139" value="CHAR(50)" style="rounded=0;whiteSpace=wrap;html=1;container=0;" parent="1" vertex="1">
          <mxGeometry x="2381" y="-1088.7836585365853" width="110" height="37.07317073170732" as="geometry" />
        </mxCell>
        <mxCell id="7xOUk3DTF3WUJqtrLa9k-140" value="room" style="rounded=0;whiteSpace=wrap;html=1;container=0;" parent="1" vertex="1">
          <mxGeometry x="2231" y="-1088.7836585365853" width="110" height="38" as="geometry" />
        </mxCell>
        <mxCell id="7xOUk3DTF3WUJqtrLa9k-141" value="CHAR(50)" style="rounded=0;whiteSpace=wrap;html=1;container=0;" parent="1" vertex="1">
          <mxGeometry x="2381" y="-1051.710487804878" width="110" height="37.07317073170732" as="geometry" />
        </mxCell>
        <mxCell id="7xOUk3DTF3WUJqtrLa9k-142" value="description" style="rounded=0;whiteSpace=wrap;html=1;container=0;" parent="1" vertex="1">
          <mxGeometry x="2231" y="-1051.710487804878" width="110" height="37.07317073170732" as="geometry" />
        </mxCell>
        <mxCell id="7xOUk3DTF3WUJqtrLa9k-143" value="" style="rounded=0;whiteSpace=wrap;html=1;strokeColor=#b85450;fillColor=#f8cecc;container=0;" parent="1" vertex="1">
          <mxGeometry x="2341" y="-1162.9268292682927" width="40" height="37.07317073170732" as="geometry" />
        </mxCell>
        <mxCell id="7xOUk3DTF3WUJqtrLa9k-144" value="" style="rounded=0;whiteSpace=wrap;html=1;strokeColor=#b85450;fillColor=#f8cecc;container=0;" parent="1" vertex="1">
          <mxGeometry x="2341" y="-1088.7836585365853" width="40" height="37.07317073170732" as="geometry" />
        </mxCell>
        <mxCell id="7xOUk3DTF3WUJqtrLa9k-145" value="" style="rounded=0;whiteSpace=wrap;html=1;strokeColor=#b85450;fillColor=#f8cecc;container=0;" parent="1" vertex="1">
          <mxGeometry x="2341" y="-1051.710487804878" width="40" height="37.07317073170732" as="geometry" />
        </mxCell>
        <mxCell id="7xOUk3DTF3WUJqtrLa9k-146" value="INTEGER" style="rounded=0;whiteSpace=wrap;html=1;container=0;" parent="1" vertex="1">
          <mxGeometry x="2381" y="-1125.8536585365855" width="110" height="37.07317073170732" as="geometry" />
        </mxCell>
        <mxCell id="7xOUk3DTF3WUJqtrLa9k-147" value="dorm_id" style="rounded=0;whiteSpace=wrap;html=1;container=0;fillColor=#fff2cc;strokeColor=#d6b656;" parent="1" vertex="1">
          <mxGeometry x="2231" y="-1125.8536585365855" width="110" height="38" as="geometry" />
        </mxCell>
        <mxCell id="7xOUk3DTF3WUJqtrLa9k-148" value="" style="rounded=0;whiteSpace=wrap;html=1;strokeColor=#b85450;fillColor=#f8cecc;container=0;" parent="1" vertex="1">
          <mxGeometry x="2341" y="-1125.8536585365855" width="40" height="37.07317073170732" as="geometry" />
        </mxCell>
        <mxCell id="7xOUk3DTF3WUJqtrLa9k-151" value="DATETIME" style="rounded=0;whiteSpace=wrap;html=1;container=0;" parent="1" vertex="1">
          <mxGeometry x="2381" y="-1014.6404878048781" width="110" height="37.07317073170732" as="geometry" />
        </mxCell>
        <mxCell id="7xOUk3DTF3WUJqtrLa9k-152" value="created at" style="rounded=0;whiteSpace=wrap;html=1;container=0;" parent="1" vertex="1">
          <mxGeometry x="2231" y="-1014.6404878048781" width="110" height="37.07317073170732" as="geometry" />
        </mxCell>
        <mxCell id="7xOUk3DTF3WUJqtrLa9k-153" value="" style="rounded=0;whiteSpace=wrap;html=1;strokeColor=#b85450;fillColor=#f8cecc;container=0;" parent="1" vertex="1">
          <mxGeometry x="2341" y="-1014.6404878048781" width="40" height="37.07317073170732" as="geometry" />
        </mxCell>
        <mxCell id="7xOUk3DTF3WUJqtrLa9k-154" value="DATETIME" style="rounded=0;whiteSpace=wrap;html=1;container=0;" parent="1" vertex="1">
          <mxGeometry x="2381" y="-977.5704878048781" width="110" height="37.07317073170732" as="geometry" />
        </mxCell>
        <mxCell id="7xOUk3DTF3WUJqtrLa9k-155" value="deleted at" style="rounded=0;whiteSpace=wrap;html=1;container=0;" parent="1" vertex="1">
          <mxGeometry x="2231" y="-977.5704878048781" width="110" height="37.07317073170732" as="geometry" />
        </mxCell>
        <mxCell id="7xOUk3DTF3WUJqtrLa9k-156" value="" style="rounded=0;whiteSpace=wrap;html=1;strokeColor=#82b366;fillColor=#d5e8d4;container=0;" parent="1" vertex="1">
          <mxGeometry x="2341" y="-977.5704878048781" width="40" height="37.07317073170732" as="geometry" />
        </mxCell>
        <mxCell id="_xIxu37W2f5-DL7v4vmT-1" value="DATETIME" style="rounded=0;whiteSpace=wrap;html=1;container=0;" vertex="1" parent="1">
          <mxGeometry x="2380.5" y="-940.0004878048782" width="110" height="37.07317073170732" as="geometry" />
        </mxCell>
        <mxCell id="_xIxu37W2f5-DL7v4vmT-2" value="user_id" style="rounded=0;whiteSpace=wrap;html=1;container=0;fillColor=#fff2cc;strokeColor=#d6b656;" vertex="1" parent="1">
          <mxGeometry x="2230.5" y="-940.0004878048782" width="110" height="37.07317073170732" as="geometry" />
        </mxCell>
        <mxCell id="_xIxu37W2f5-DL7v4vmT-3" value="" style="rounded=0;whiteSpace=wrap;html=1;strokeColor=#b85450;fillColor=#f8cecc;container=0;" vertex="1" parent="1">
          <mxGeometry x="2340.5" y="-940.0004878048782" width="40" height="37.07317073170732" as="geometry" />
        </mxCell>
        <mxCell id="_xIxu37W2f5-DL7v4vmT-6" style="edgeStyle=orthogonalEdgeStyle;rounded=1;orthogonalLoop=1;jettySize=auto;html=1;entryX=1;entryY=0.5;entryDx=0;entryDy=0;curved=0;" edge="1" parent="1" source="7xOUk3DTF3WUJqtrLa9k-102" target="Mg-qTSmUdFS9DDmD3kpt-277">
          <mxGeometry relative="1" as="geometry">
            <Array as="points">
              <mxPoint x="2540" y="-707" />
              <mxPoint x="2540" y="-744" />
            </Array>
          </mxGeometry>
        </mxCell>
      </root>
    </mxGraphModel>
  </diagram>
</mxfile>
